<svg version="1.2" xmlns="http://www.w3.org/2000/svg" viewBox="0 0 375 376" width="375" height="376"><defs><clipPath clipPathUnits="userSpaceOnUse" id="cp1"><path d="m151 155h55.84v53.49h-55.84z"/></clipPath></defs><style>.a{fill:#fff}.b{fill:#2b2b2b}</style><path class="a" d="m-37.5-36.5h450v450h-450z"/><path class="a" d="m-37.5-36.5h450v450h-450z"/><g clip-path="url(#cp1)"><path fill-rule="evenodd" class="b" d="m172.4 175.8h6.8c1.7 0 1.7-2.6 0-2.6h-18.1c-1.7 0-1.7-2.6 0-2.6h8.4c1.7 0 1.6-2.5 0.2-2.6h-4.8c-1.7 0-1.7-2.6 0-2.6h1.3c0.4-0.1 1-0.6 1-1.3 0-0.6-0.5-1.1-1.1-1.3h-4.6c-1.7 0-1.7-2.6 0-2.6h4.8c1.7 0 1.7-2.4 0.3-2.5h-10.2c-1.7 0-1.7-2.6 0-2.6h14.8q1 0.1 1.6 1l8.5 13.3c0.9 1.4 3 1.4 3.9 0l8.7-13.3c0.4-0.7 1.1-1 1.9-1h7.7c1.9 0 2.9 2 1.9 3.6l-14.5 21.1c-0.5 0.8-0.5 1.8 0 2.6l15.3 22.3c1 1.6-0.1 3.7-1.9 3.7h-8.1c-0.8 0-1.5-0.4-1.9-1.1l-9.4-14.3c-0.9-1.4-2.9-1.4-3.8 0l-9.4 14.3c-0.5 0.7-1.2 1.1-2 1.1h-11c-0.2-0.8 0.3-1.6 1.1-1.6h1.9c1.7 0 1.7-2.6 0-2.6h-6.1c-1.7 0-1.7-2.6 0-2.6h8.9c1.7 0 1.7-2.6 0-2.6-0.9 0-2.5 0.2-2.5-1.3 0-0.7 0.6-1.3 1.3-1.3h7.6c1.7 0 1.7-2.6 0-2.6h-5.3c-1.7 0-1.7-2.6 0-2.6h8.7c1.7 0 1.7-2.6 0-2.6h-6.1c-1.7 0-1.7-2.6 0-2.6q5.1 0 10.1 0c1.7 0 1.7-2.6 0-2.6h-4c-1.7 0-1.7-2.6 0-2.6h1.4c1.6-0.2 1.5-2.6-0.2-2.6q-2.3 0-4.7 0c-1.7 0-1.7-2.6 0-2.6h1.6zm-5.1 5.2h3.6c1.7 0 1.7 2.6 0 2.6h-3.6c-1.8 0-1.8-2.6 0-2.6zm-12.5-15.5h6c1.7 0 1.7 2.6 0 2.6h-6c-1.7 0-1.7-2.6 0-2.6zm-2.5-10.3c0.7 0 2.2-0.1 2.2 1.3 0 1.4-1.5 1.3-2.2 1.3-1.7 0-1.7-2.6 0-2.6zm10.6 31c1 0 2.8-0.3 2.8 1.3 0 1.5-1.8 1.3-2.8 1.3-1.7 0-1.7-2.6 0-2.6zm-2.9-10.4h6.3c1.7 0 1.7 2.6 0 2.6h-6.3c-1.7 0-1.7-2.6 0-2.6zm-7 15.6h9c1.7 0 1.7 2.6 0 2.6h-9c-1.7 0-1.7-2.6 0-2.6zm4.5 5.2h2.4c1.7 0 1.7 2.6 0 2.6h-2.4c-1.7 0-1.7-2.6 0-2.6z"/></g></svg>