<svg xmlns="http://www.w3.org/2000/svg" xmlns:xlink="http://www.w3.org/1999/xlink" width="500" zoomAndPan="magnify" viewBox="0 0 375 374.999991" height="500" preserveAspectRatio="xMidYMid meet" version="1.0"><defs><clipPath id="705f997a74"><path d="M 128 113.460938 L 247 113.460938 L 247 227.460938 L 128 227.460938 Z M 128 113.460938 " clip-rule="nonzero"/></clipPath></defs><rect x="-37.5" width="450" fill="#ffffff" y="-37.499999" height="449.999989" fill-opacity="1"/><rect x="-37.5" width="450" fill="#ffffff" y="-37.499999" height="449.999989" fill-opacity="1"/><g clip-path="url(#705f997a74)"><path fill="#2b2b2b" d="M 173.628906 157.714844 L 188.023438 157.714844 C 191.640625 157.714844 191.640625 152.171875 188.023438 152.171875 L 149.578125 152.171875 C 145.960938 152.171875 145.960938 146.625 149.578125 146.625 L 167.335938 146.625 C 170.949219 146.625 170.824219 141.390625 167.835938 141.140625 L 157.675781 141.140625 C 154.0625 141.140625 154.0625 135.59375 157.675781 135.59375 L 160.355469 135.59375 C 161.292969 135.46875 162.476562 134.285156 162.476562 132.914062 C 162.476562 131.542969 161.480469 130.421875 160.171875 130.171875 L 150.324219 130.171875 C 146.710938 130.171875 146.710938 124.628906 150.324219 124.628906 L 160.667969 124.628906 C 164.28125 124.628906 164.160156 119.394531 161.167969 119.144531 L 139.480469 119.144531 C 135.867188 119.144531 135.867188 113.597656 139.480469 113.597656 L 170.949219 113.660156 C 172.382812 113.847656 173.566406 114.59375 174.378906 115.839844 L 192.636719 144.070312 C 194.566406 147.058594 198.929688 147.058594 200.921875 144.070312 L 219.367188 115.839844 C 220.304688 114.40625 221.800781 113.597656 223.480469 113.597656 L 239.871094 113.597656 C 243.859375 113.597656 246.164062 118.023438 243.921875 121.324219 L 213.136719 166.316406 C 211.953125 168 211.953125 170.179688 213.136719 171.863281 L 245.601562 219.46875 C 247.847656 222.773438 245.480469 227.195312 241.554688 227.195312 L 224.355469 227.195312 C 222.609375 227.195312 221.175781 226.386719 220.242188 224.953125 L 200.300781 194.542969 C 198.367188 191.554688 194.007812 191.554688 192.074219 194.542969 L 172.011719 225.015625 C 171.074219 226.449219 169.578125 227.257812 167.898438 227.257812 L 144.34375 227.257812 C 143.90625 225.640625 145.089844 223.957031 146.773438 223.832031 L 150.824219 223.832031 C 154.4375 223.832031 154.4375 218.285156 150.824219 218.285156 L 137.863281 218.285156 C 134.246094 218.285156 134.246094 212.738281 137.863281 212.738281 L 156.742188 212.738281 C 160.355469 212.738281 160.355469 207.195312 156.742188 207.195312 C 154.8125 207.195312 151.445312 207.628906 151.445312 204.453125 C 151.445312 202.957031 152.691406 201.710938 154.1875 201.710938 L 170.328125 201.710938 C 173.941406 201.710938 173.941406 196.164062 170.328125 196.164062 L 159.109375 196.164062 C 155.496094 196.164062 155.496094 190.617188 159.109375 190.617188 L 177.679688 190.617188 C 181.292969 190.617188 181.292969 185.074219 177.679688 185.074219 L 164.71875 185.074219 C 161.105469 185.074219 161.105469 179.527344 164.71875 179.527344 C 171.886719 179.527344 179.050781 179.527344 186.21875 179.527344 C 189.832031 179.527344 189.832031 173.980469 186.21875 173.980469 L 177.554688 173.980469 C 173.941406 173.980469 173.941406 168.433594 177.554688 168.433594 L 180.609375 168.433594 C 184.035156 168.058594 183.789062 162.949219 180.296875 162.949219 C 176.933594 162.949219 173.566406 162.949219 170.203125 162.949219 C 166.589844 162.949219 166.589844 157.40625 170.203125 157.40625 L 173.628906 157.40625 Z M 162.664062 168.808594 L 170.328125 168.808594 C 173.941406 168.808594 173.941406 174.355469 170.328125 174.355469 L 162.664062 174.355469 C 158.984375 174.292969 158.984375 168.808594 162.664062 168.808594 Z M 136.054688 135.71875 L 148.953125 135.71875 C 152.566406 135.71875 152.566406 141.265625 148.953125 141.265625 L 136.054688 141.265625 C 132.378906 141.203125 132.378906 135.71875 136.054688 135.71875 Z M 130.820312 113.785156 C 132.316406 113.785156 135.367188 113.535156 135.367188 116.527344 C 135.367188 119.515625 132.316406 119.269531 130.820312 119.269531 C 127.144531 119.332031 127.144531 113.785156 130.820312 113.785156 Z M 153.378906 179.839844 C 155.558594 179.839844 159.359375 179.277344 159.359375 182.578125 C 159.359375 185.882812 155.558594 185.320312 153.378906 185.320312 C 149.703125 185.320312 149.703125 179.839844 153.378906 179.839844 Z M 147.085938 157.714844 L 160.667969 157.714844 C 164.28125 157.714844 164.28125 163.261719 160.667969 163.261719 L 147.085938 163.261719 C 143.46875 163.261719 143.46875 157.714844 147.085938 157.714844 Z M 132.253906 190.867188 L 151.445312 190.867188 C 155.058594 190.867188 155.058594 196.414062 151.445312 196.414062 L 132.253906 196.414062 C 128.578125 196.414062 128.578125 190.867188 132.253906 190.867188 Z M 141.789062 201.898438 L 146.898438 201.898438 C 150.511719 201.898438 150.511719 207.441406 146.898438 207.441406 L 141.789062 207.441406 C 138.171875 207.441406 138.171875 201.898438 141.789062 201.898438 Z M 141.789062 201.898438 " fill-opacity="1" fill-rule="evenodd"/></g></svg>