<svg xmlns="http://www.w3.org/2000/svg" xmlns:xlink="http://www.w3.org/1999/xlink" width="500" zoomAndPan="magnify" viewBox="0 0 375 374.999991" height="500" preserveAspectRatio="xMidYMid meet" version="1.0"><defs><g/><clipPath id="b1254330ec"><path d="M 128 104.171875 L 247 104.171875 L 247 218 L 128 218 Z M 128 104.171875 " clip-rule="nonzero"/></clipPath></defs><g fill="#ffffff" fill-opacity="1"><g transform="translate(121.979162, 251.91637)"><g><path d="M 1.71875 -0.464844 C 1.71875 -0.195312 1.914062 0 2.183594 0 L 7.875 0 C 8.144531 0 8.339844 -0.195312 8.339844 -0.464844 L 8.339844 -22.496094 C 8.339844 -22.765625 8.144531 -22.960938 7.875 -22.960938 L 2.183594 -22.960938 C 1.914062 -22.960938 1.71875 -22.765625 1.71875 -22.496094 Z M 1.71875 -0.464844 "/></g></g></g><g fill="#ffffff" fill-opacity="1"><g transform="translate(136.745853, 251.91637)"><g><path d="M 1.71875 -0.464844 C 1.71875 -0.171875 1.890625 0 2.183594 0 L 7.875 0 C 8.167969 0 8.339844 -0.171875 8.339844 -0.464844 L 8.339844 -13.664062 C 8.339844 -13.960938 8.511719 -14.128906 8.808594 -14.128906 L 9.371094 -14.128906 C 9.664062 -14.128906 9.835938 -13.960938 9.835938 -13.664062 L 9.835938 -13.125 C 9.835938 -12.832031 10.007812 -12.660156 10.304688 -12.660156 L 10.84375 -12.660156 C 11.136719 -12.660156 11.308594 -12.488281 11.308594 -12.191406 L 11.308594 -0.464844 C 11.308594 -0.171875 11.480469 0 11.777344 0 L 17.46875 0 C 17.761719 0 17.933594 -0.171875 17.933594 -0.464844 L 17.933594 -22.496094 C 17.933594 -22.789062 17.761719 -22.960938 17.46875 -22.960938 L 11.777344 -22.960938 C 11.480469 -22.960938 11.308594 -22.789062 11.308594 -22.496094 L 11.308594 -16.070312 C 11.308594 -15.800781 11.503906 -15.601562 11.777344 -15.601562 L 12.316406 -15.601562 C 12.585938 -15.601562 12.78125 -15.40625 12.78125 -15.136719 L 12.78125 -14.597656 C 12.78125 -14.328125 12.976562 -14.128906 13.246094 -14.128906 L 13.789062 -14.128906 C 14.058594 -14.128906 14.253906 -13.933594 14.253906 -13.664062 L 14.253906 -13.125 C 14.253906 -12.855469 14.058594 -12.660156 13.789062 -12.660156 L 13.246094 -12.660156 C 12.976562 -12.660156 12.78125 -12.855469 12.78125 -13.125 L 12.78125 -13.664062 C 12.78125 -13.933594 12.585938 -14.128906 12.316406 -14.128906 L 11.777344 -14.128906 C 11.503906 -14.128906 11.308594 -14.328125 11.308594 -14.597656 L 11.308594 -15.136719 C 11.308594 -15.429688 11.136719 -15.601562 10.84375 -15.601562 L 10.304688 -15.601562 C 10.007812 -15.601562 9.835938 -15.773438 9.835938 -16.070312 L 9.835938 -16.609375 C 9.835938 -16.902344 9.664062 -17.074219 9.371094 -17.074219 L 8.832031 -17.074219 C 8.539062 -17.074219 8.367188 -17.246094 8.367188 -17.539062 L 8.367188 -18.082031 C 8.367188 -18.375 8.195312 -18.546875 7.898438 -18.546875 L 7.359375 -18.546875 C 7.089844 -18.546875 6.894531 -18.742188 6.894531 -19.011719 L 6.894531 -19.550781 C 6.894531 -19.820312 6.699219 -20.019531 6.425781 -20.019531 L 5.886719 -20.019531 C 5.617188 -20.019531 5.421875 -20.214844 5.421875 -20.484375 L 5.421875 -21.023438 C 5.421875 -21.292969 5.226562 -21.492188 4.957031 -21.492188 L 4.414062 -21.492188 C 4.144531 -21.492188 3.949219 -21.6875 3.949219 -21.957031 L 3.949219 -22.496094 C 3.949219 -22.765625 3.753906 -22.960938 3.484375 -22.960938 L 2.183594 -22.960938 C 1.890625 -22.960938 1.71875 -22.789062 1.71875 -22.496094 Z M 1.71875 -0.464844 "/></g></g></g><g fill="#ffffff" fill-opacity="1"><g transform="translate(161.102749, 251.91637)"><g><path d="M 2.574219 -0.464844 C 2.574219 -0.195312 2.746094 0 3.015625 0 L 14.179688 0 C 14.449219 0 14.621094 -0.195312 14.621094 -0.464844 L 14.621094 -1.003906 C 14.621094 -1.277344 14.816406 -1.472656 15.085938 -1.472656 L 15.628906 -1.472656 C 15.898438 -1.472656 16.09375 -1.667969 16.09375 -1.9375 L 16.09375 -2.453125 C 16.09375 -2.746094 16.289062 -2.945312 16.582031 -2.945312 L 17.074219 -2.945312 C 17.367188 -2.945312 17.566406 -3.140625 17.566406 -3.433594 L 17.566406 -9.222656 C 17.566406 -9.519531 17.367188 -9.714844 17.074219 -9.714844 L 16.582031 -9.714844 C 16.289062 -9.714844 16.09375 -9.910156 16.09375 -10.207031 L 16.09375 -10.71875 C 16.09375 -10.992188 15.898438 -11.1875 15.628906 -11.1875 L 15.085938 -11.1875 C 14.816406 -11.1875 14.621094 -11.382812 14.621094 -11.652344 L 14.621094 -12.191406 C 14.621094 -12.460938 14.425781 -12.660156 14.15625 -12.660156 L 10.179688 -12.660156 C 9.910156 -12.660156 9.714844 -12.855469 9.714844 -13.125 L 9.714844 -13.664062 C 9.714844 -13.933594 9.519531 -14.128906 9.25 -14.128906 L 8.464844 -14.128906 C 8.195312 -14.128906 7.996094 -14.328125 7.996094 -14.597656 L 7.996094 -19.550781 C 7.996094 -19.820312 8.195312 -20.019531 8.464844 -20.019531 L 9.003906 -20.019531 C 9.273438 -20.019531 9.46875 -20.214844 9.46875 -20.484375 L 9.46875 -21.023438 C 9.46875 -21.292969 9.664062 -21.492188 9.9375 -21.492188 L 10.476562 -21.492188 C 10.746094 -21.492188 10.941406 -21.292969 10.941406 -21.023438 L 10.941406 -18.277344 C 10.941406 -18.007812 11.136719 -17.8125 11.40625 -17.8125 L 11.949219 -17.8125 C 12.21875 -17.8125 12.414062 -17.613281 12.414062 -17.34375 L 12.414062 -16.804688 C 12.414062 -16.535156 12.609375 -16.339844 12.878906 -16.339844 L 16.609375 -16.339844 C 16.878906 -16.339844 17.074219 -16.535156 17.074219 -16.804688 L 17.074219 -21.023438 C 17.074219 -21.292969 16.878906 -21.492188 16.609375 -21.492188 L 14.84375 -21.492188 C 14.574219 -21.492188 14.375 -21.6875 14.375 -21.957031 L 14.375 -22.496094 C 14.375 -22.765625 14.179688 -22.960938 13.910156 -22.960938 L 4.785156 -22.960938 C 4.515625 -22.960938 4.316406 -22.765625 4.316406 -22.496094 L 4.316406 -21.957031 C 4.316406 -21.6875 4.121094 -21.492188 3.851562 -21.492188 L 3.3125 -21.492188 C 3.042969 -21.492188 2.847656 -21.292969 2.847656 -21.023438 L 2.847656 -20.507812 C 2.847656 -20.214844 2.648438 -20.019531 2.355469 -20.019531 L 1.863281 -20.019531 C 1.570312 -20.019531 1.375 -19.820312 1.375 -19.527344 L 1.375 -14.621094 C 1.375 -14.328125 1.570312 -14.128906 1.863281 -14.128906 L 2.355469 -14.128906 C 2.648438 -14.128906 2.847656 -13.933594 2.847656 -13.640625 L 2.847656 -13.125 C 2.847656 -12.855469 3.042969 -12.660156 3.3125 -12.660156 L 3.851562 -12.660156 C 4.121094 -12.660156 4.316406 -12.460938 4.316406 -12.191406 L 4.316406 -11.652344 C 4.316406 -11.382812 4.515625 -11.1875 4.785156 -11.1875 L 9.003906 -11.1875 C 9.273438 -11.1875 9.46875 -10.992188 9.46875 -10.71875 L 9.46875 -10.179688 C 9.46875 -9.910156 9.664062 -9.714844 9.9375 -9.714844 L 10.476562 -9.714844 C 10.746094 -9.714844 10.941406 -9.519531 10.941406 -9.25 L 10.941406 -3.410156 C 10.941406 -3.140625 10.746094 -2.945312 10.476562 -2.945312 L 9.664062 -2.945312 C 9.394531 -2.945312 9.199219 -2.746094 9.199219 -2.476562 L 9.199219 -1.9375 C 9.199219 -1.667969 9.003906 -1.472656 8.734375 -1.472656 L 8.195312 -1.472656 C 7.925781 -1.472656 7.726562 -1.667969 7.726562 -1.9375 L 7.726562 -6.15625 C 7.726562 -6.425781 7.53125 -6.625 7.261719 -6.625 L 1.570312 -6.625 C 1.300781 -6.625 1.105469 -6.425781 1.105469 -6.15625 L 1.105469 -1.9375 C 1.105469 -1.667969 1.300781 -1.472656 1.570312 -1.472656 L 2.109375 -1.472656 C 2.378906 -1.472656 2.574219 -1.277344 2.574219 -1.003906 Z M 2.574219 -0.464844 "/></g></g></g><g fill="#ffffff" fill-opacity="1"><g transform="translate(184.723828, 251.91637)"><g><path d="M 4.660156 -0.464844 C 4.660156 -0.195312 4.859375 0 5.128906 0 L 14.5 0 C 14.769531 0 14.964844 -0.195312 14.964844 -0.464844 L 14.964844 -1.003906 C 14.964844 -1.277344 15.160156 -1.472656 15.429688 -1.472656 L 15.96875 -1.472656 C 16.242188 -1.472656 16.4375 -1.667969 16.4375 -1.9375 L 16.4375 -2.476562 C 16.4375 -2.746094 16.632812 -2.945312 16.902344 -2.945312 L 17.441406 -2.945312 C 17.710938 -2.945312 17.910156 -3.140625 17.910156 -3.410156 L 17.910156 -22.496094 C 17.910156 -22.765625 17.710938 -22.960938 17.441406 -22.960938 L 11.75 -22.960938 C 11.457031 -22.960938 11.285156 -22.789062 11.285156 -22.496094 L 11.285156 -3.410156 C 11.285156 -3.117188 11.113281 -2.945312 10.820312 -2.945312 L 10.277344 -2.945312 C 9.984375 -2.945312 9.8125 -2.773438 9.8125 -2.476562 L 9.8125 -1.9375 C 9.8125 -1.644531 9.640625 -1.472656 9.347656 -1.472656 L 8.808594 -1.472656 C 8.511719 -1.472656 8.339844 -1.644531 8.339844 -1.9375 L 8.339844 -22.496094 C 8.339844 -22.765625 8.144531 -22.960938 7.875 -22.960938 L 2.183594 -22.960938 C 1.914062 -22.960938 1.71875 -22.765625 1.71875 -22.496094 L 1.71875 -3.410156 C 1.71875 -3.140625 1.914062 -2.945312 2.183594 -2.945312 L 2.722656 -2.945312 C 2.992188 -2.945312 3.1875 -2.746094 3.1875 -2.476562 L 3.1875 -1.9375 C 3.1875 -1.667969 3.386719 -1.472656 3.65625 -1.472656 L 4.195312 -1.472656 C 4.464844 -1.472656 4.660156 -1.277344 4.660156 -1.003906 Z M 4.660156 -0.464844 "/></g></g></g><g fill="#ffffff" fill-opacity="1"><g transform="translate(209.056197, 251.91637)"><g><path d="M 8.339844 -21.023438 C 8.339844 -21.320312 8.511719 -21.492188 8.808594 -21.492188 L 9.347656 -21.492188 C 9.640625 -21.492188 9.8125 -21.320312 9.8125 -21.023438 L 9.8125 -20.484375 C 9.8125 -20.191406 9.984375 -20.019531 10.277344 -20.019531 L 10.820312 -20.019531 C 11.113281 -20.019531 11.285156 -19.847656 11.285156 -19.550781 L 11.285156 -13.320312 C 11.285156 -13.027344 11.113281 -12.855469 10.820312 -12.855469 L 10.277344 -12.855469 C 9.984375 -12.855469 9.8125 -12.683594 9.8125 -12.390625 L 9.8125 -11.847656 C 9.8125 -11.554688 9.640625 -11.382812 9.347656 -11.382812 L 8.808594 -11.382812 C 8.511719 -11.382812 8.339844 -11.554688 8.339844 -11.847656 Z M 1.71875 -0.464844 C 1.71875 -0.195312 1.914062 0 2.183594 0 L 7.875 0 C 8.144531 0 8.339844 -0.195312 8.339844 -0.464844 L 8.339844 -9.445312 C 8.339844 -9.714844 8.539062 -9.910156 8.808594 -9.910156 L 9.347656 -9.910156 C 9.617188 -9.910156 9.8125 -9.714844 9.8125 -9.445312 L 9.8125 -8.90625 C 9.8125 -8.636719 10.007812 -8.4375 10.277344 -8.4375 L 10.820312 -8.4375 C 11.089844 -8.4375 11.285156 -8.242188 11.285156 -7.972656 L 11.285156 -0.464844 C 11.285156 -0.195312 11.480469 0 11.75 0 L 17.441406 0 C 17.710938 0 17.910156 -0.195312 17.910156 -0.464844 L 17.910156 -7.972656 C 17.910156 -8.242188 17.710938 -8.4375 17.441406 -8.4375 L 16.902344 -8.4375 C 16.632812 -8.4375 16.4375 -8.636719 16.4375 -8.90625 L 16.4375 -9.445312 C 16.4375 -9.714844 16.242188 -9.910156 15.96875 -9.910156 L 13.222656 -9.910156 C 12.953125 -9.910156 12.757812 -10.105469 12.757812 -10.378906 L 12.757812 -10.917969 C 12.757812 -11.1875 12.953125 -11.382812 13.222656 -11.382812 L 15.96875 -11.382812 C 16.242188 -11.382812 16.4375 -11.578125 16.4375 -11.847656 L 16.4375 -12.390625 C 16.4375 -12.660156 16.632812 -12.855469 16.902344 -12.855469 L 17.441406 -12.855469 C 17.710938 -12.855469 17.910156 -13.050781 17.910156 -13.320312 L 17.910156 -19.550781 C 17.910156 -19.820312 17.710938 -20.019531 17.441406 -20.019531 L 16.902344 -20.019531 C 16.632812 -20.019531 16.4375 -20.214844 16.4375 -20.484375 L 16.4375 -21.023438 C 16.4375 -21.292969 16.242188 -21.492188 15.96875 -21.492188 L 15.429688 -21.492188 C 15.160156 -21.492188 14.964844 -21.6875 14.964844 -21.957031 L 14.964844 -22.496094 C 14.964844 -22.765625 14.769531 -22.960938 14.5 -22.960938 L 2.183594 -22.960938 C 1.914062 -22.960938 1.71875 -22.765625 1.71875 -22.496094 Z M 1.71875 -0.464844 "/></g></g></g><g fill="#ffffff" fill-opacity="1"><g transform="translate(233.388567, 251.91637)"><g><path d="M 1.71875 -0.464844 C 1.71875 -0.195312 1.914062 0 2.183594 0 L 7.875 0 C 8.144531 0 8.339844 -0.195312 8.339844 -0.464844 L 8.339844 -6.796875 C 8.339844 -7.066406 8.539062 -7.261719 8.808594 -7.261719 L 9.347656 -7.261719 C 9.617188 -7.261719 9.8125 -7.457031 9.8125 -7.726562 L 9.8125 -8.265625 C 9.8125 -8.539062 10.007812 -8.734375 10.277344 -8.734375 L 10.820312 -8.734375 C 11.089844 -8.734375 11.285156 -8.539062 11.285156 -8.265625 L 11.285156 -0.464844 C 11.285156 -0.195312 11.480469 0 11.75 0 L 17.441406 0 C 17.710938 0 17.910156 -0.195312 17.910156 -0.464844 L 17.910156 -21.023438 C 17.910156 -21.292969 17.710938 -21.492188 17.441406 -21.492188 L 16.902344 -21.492188 C 16.632812 -21.492188 16.4375 -21.6875 16.4375 -21.957031 L 16.4375 -22.496094 C 16.4375 -22.765625 16.242188 -22.960938 15.96875 -22.960938 L 8.046875 -22.960938 C 7.777344 -22.960938 7.582031 -22.765625 7.582031 -22.496094 L 7.582031 -21.957031 C 7.582031 -21.6875 7.382812 -21.492188 7.113281 -21.492188 L 6.867188 -21.492188 C 6.597656 -21.492188 6.402344 -21.292969 6.402344 -21.023438 L 6.402344 -20.484375 C 6.402344 -20.214844 6.207031 -20.019531 5.9375 -20.019531 L 5.398438 -20.019531 C 5.128906 -20.019531 4.929688 -19.820312 4.929688 -19.550781 L 4.929688 -19.011719 C 4.929688 -18.742188 4.734375 -18.546875 4.464844 -18.546875 L 3.925781 -18.546875 C 3.65625 -18.546875 3.460938 -18.351562 3.460938 -18.082031 L 3.460938 -17.539062 C 3.460938 -17.269531 3.261719 -17.074219 2.992188 -17.074219 L 2.183594 -17.074219 C 1.914062 -17.074219 1.71875 -16.878906 1.71875 -16.609375 Z M 8.808594 -10.058594 C 8.539062 -10.058594 8.339844 -10.253906 8.339844 -10.523438 L 8.339844 -19.550781 C 8.339844 -19.820312 8.539062 -20.019531 8.808594 -20.019531 L 9.347656 -20.019531 C 9.617188 -20.019531 9.8125 -20.214844 9.8125 -20.484375 L 9.8125 -21.023438 C 9.8125 -21.292969 10.007812 -21.492188 10.277344 -21.492188 L 10.820312 -21.492188 C 11.089844 -21.492188 11.285156 -21.292969 11.285156 -21.023438 L 11.285156 -11.996094 C 11.285156 -11.726562 11.089844 -11.53125 10.820312 -11.53125 L 10.277344 -11.53125 C 10.007812 -11.53125 9.8125 -11.335938 9.8125 -11.0625 L 9.8125 -10.523438 C 9.8125 -10.253906 9.617188 -10.058594 9.347656 -10.058594 Z M 8.808594 -10.058594 "/></g></g></g><g fill="#ffffff" fill-opacity="1"><g transform="translate(154.430487, 268.840295)"><g><path d="M 0.703125 -0.191406 C 0.703125 -0.0820312 0.785156 0 0.894531 0 L 3.226562 0 C 3.335938 0 3.417969 -0.0820312 3.417969 -0.191406 L 3.417969 -3.566406 C 3.417969 -3.679688 3.496094 -3.757812 3.609375 -3.757812 L 4.433594 -3.757812 C 4.542969 -3.757812 4.621094 -3.839844 4.621094 -3.949219 L 4.621094 -4.171875 C 4.621094 -4.28125 4.703125 -4.363281 4.8125 -4.363281 L 6.542969 -4.363281 C 6.664062 -4.363281 6.734375 -4.433594 6.734375 -4.550781 L 6.734375 -4.773438 C 6.734375 -4.882812 6.8125 -4.964844 6.925781 -4.964844 L 7.144531 -4.964844 C 7.257812 -4.964844 7.335938 -5.046875 7.335938 -5.15625 L 7.335938 -8.011719 C 7.335938 -8.121094 7.257812 -8.199219 7.144531 -8.199219 L 6.925781 -8.199219 C 6.8125 -8.199219 6.734375 -8.28125 6.734375 -8.390625 L 6.734375 -8.613281 C 6.734375 -8.722656 6.652344 -8.804688 6.542969 -8.804688 L 6.320312 -8.804688 C 6.210938 -8.804688 6.128906 -8.882812 6.128906 -8.996094 L 6.128906 -9.214844 C 6.128906 -9.328125 6.050781 -9.40625 5.941406 -9.40625 L 0.894531 -9.40625 C 0.785156 -9.40625 0.703125 -9.328125 0.703125 -9.214844 Z M 3.417969 -8.613281 C 3.417969 -8.734375 3.488281 -8.804688 3.609375 -8.804688 L 3.828125 -8.804688 C 3.949219 -8.804688 4.019531 -8.734375 4.019531 -8.613281 L 4.019531 -8.390625 C 4.019531 -8.269531 4.089844 -8.199219 4.210938 -8.199219 L 4.433594 -8.199219 C 4.550781 -8.199219 4.621094 -8.128906 4.621094 -8.011719 L 4.621094 -5.15625 C 4.621094 -5.035156 4.550781 -4.964844 4.433594 -4.964844 L 4.210938 -4.964844 C 4.089844 -4.964844 4.019531 -4.894531 4.019531 -4.773438 L 4.019531 -4.550781 C 4.019531 -4.433594 3.949219 -4.363281 3.828125 -4.363281 L 3.609375 -4.363281 C 3.488281 -4.363281 3.417969 -4.433594 3.417969 -4.550781 Z M 3.417969 -8.613281 "/></g></g></g><g fill="#ffffff" fill-opacity="1"><g transform="translate(170.005487, 268.840295)"><g><path d="M 3.417969 -8.613281 C 3.417969 -8.734375 3.488281 -8.804688 3.609375 -8.804688 L 3.828125 -8.804688 C 3.949219 -8.804688 4.019531 -8.734375 4.019531 -8.613281 L 4.019531 -8.390625 C 4.019531 -8.269531 4.089844 -8.199219 4.210938 -8.199219 L 4.433594 -8.199219 C 4.550781 -8.199219 4.621094 -8.128906 4.621094 -8.011719 L 4.621094 -5.457031 C 4.621094 -5.335938 4.550781 -5.265625 4.433594 -5.265625 L 4.210938 -5.265625 C 4.089844 -5.265625 4.019531 -5.195312 4.019531 -5.074219 L 4.019531 -4.855469 C 4.019531 -4.734375 3.949219 -4.664062 3.828125 -4.664062 L 3.609375 -4.664062 C 3.488281 -4.664062 3.417969 -4.734375 3.417969 -4.855469 Z M 0.703125 -0.191406 C 0.703125 -0.0820312 0.785156 0 0.894531 0 L 3.226562 0 C 3.335938 0 3.417969 -0.0820312 3.417969 -0.191406 L 3.417969 -3.871094 C 3.417969 -3.980469 3.496094 -4.058594 3.609375 -4.058594 L 3.828125 -4.058594 C 3.941406 -4.058594 4.019531 -3.980469 4.019531 -3.871094 L 4.019531 -3.648438 C 4.019531 -3.539062 4.101562 -3.457031 4.210938 -3.457031 L 4.433594 -3.457031 C 4.542969 -3.457031 4.621094 -3.375 4.621094 -3.265625 L 4.621094 -0.191406 C 4.621094 -0.0820312 4.703125 0 4.8125 0 L 7.144531 0 C 7.257812 0 7.335938 -0.0820312 7.335938 -0.191406 L 7.335938 -3.265625 C 7.335938 -3.375 7.257812 -3.457031 7.144531 -3.457031 L 6.925781 -3.457031 C 6.8125 -3.457031 6.734375 -3.539062 6.734375 -3.648438 L 6.734375 -3.871094 C 6.734375 -3.980469 6.652344 -4.058594 6.542969 -4.058594 L 5.417969 -4.058594 C 5.304688 -4.058594 5.226562 -4.140625 5.226562 -4.25 L 5.226562 -4.472656 C 5.226562 -4.582031 5.304688 -4.664062 5.417969 -4.664062 L 6.542969 -4.664062 C 6.652344 -4.664062 6.734375 -4.742188 6.734375 -4.855469 L 6.734375 -5.074219 C 6.734375 -5.1875 6.8125 -5.265625 6.925781 -5.265625 L 7.144531 -5.265625 C 7.257812 -5.265625 7.335938 -5.347656 7.335938 -5.457031 L 7.335938 -8.011719 C 7.335938 -8.121094 7.257812 -8.199219 7.144531 -8.199219 L 6.925781 -8.199219 C 6.8125 -8.199219 6.734375 -8.28125 6.734375 -8.390625 L 6.734375 -8.613281 C 6.734375 -8.722656 6.652344 -8.804688 6.542969 -8.804688 L 6.320312 -8.804688 C 6.210938 -8.804688 6.128906 -8.882812 6.128906 -8.996094 L 6.128906 -9.214844 C 6.128906 -9.328125 6.050781 -9.40625 5.941406 -9.40625 L 0.894531 -9.40625 C 0.785156 -9.40625 0.703125 -9.328125 0.703125 -9.214844 Z M 0.703125 -0.191406 "/></g></g></g><g fill="#ffffff" fill-opacity="1"><g transform="translate(186.082631, 268.840295)"><g><path d="M 1.910156 -0.191406 C 1.910156 -0.0820312 1.988281 0 2.101562 0 L 5.941406 0 C 6.050781 0 6.128906 -0.0820312 6.128906 -0.191406 L 6.128906 -0.410156 C 6.128906 -0.523438 6.210938 -0.601562 6.320312 -0.601562 L 6.542969 -0.601562 C 6.652344 -0.601562 6.734375 -0.683594 6.734375 -0.792969 L 6.734375 -1.015625 C 6.734375 -1.125 6.8125 -1.207031 6.925781 -1.207031 L 7.144531 -1.207031 C 7.257812 -1.207031 7.335938 -1.285156 7.335938 -1.398438 L 7.335938 -8.011719 C 7.335938 -8.121094 7.257812 -8.199219 7.144531 -8.199219 L 6.925781 -8.199219 C 6.8125 -8.199219 6.734375 -8.28125 6.734375 -8.390625 L 6.734375 -8.613281 C 6.734375 -8.722656 6.652344 -8.804688 6.542969 -8.804688 L 6.320312 -8.804688 C 6.210938 -8.804688 6.128906 -8.882812 6.128906 -8.996094 L 6.128906 -9.214844 C 6.128906 -9.328125 6.050781 -9.40625 5.941406 -9.40625 L 2.101562 -9.40625 C 1.988281 -9.40625 1.910156 -9.328125 1.910156 -9.214844 L 1.910156 -8.996094 C 1.910156 -8.882812 1.828125 -8.804688 1.71875 -8.804688 L 1.496094 -8.804688 C 1.386719 -8.804688 1.304688 -8.722656 1.304688 -8.613281 L 1.304688 -8.390625 C 1.304688 -8.28125 1.226562 -8.199219 1.117188 -8.199219 L 0.894531 -8.199219 C 0.785156 -8.199219 0.703125 -8.121094 0.703125 -8.011719 L 0.703125 -1.398438 C 0.703125 -1.285156 0.785156 -1.207031 0.894531 -1.207031 L 1.117188 -1.207031 C 1.226562 -1.207031 1.304688 -1.125 1.304688 -1.015625 L 1.304688 -0.792969 C 1.304688 -0.683594 1.386719 -0.601562 1.496094 -0.601562 L 1.71875 -0.601562 C 1.828125 -0.601562 1.910156 -0.523438 1.910156 -0.410156 Z M 3.417969 -8.613281 C 3.417969 -8.722656 3.496094 -8.804688 3.609375 -8.804688 L 3.828125 -8.804688 C 3.941406 -8.804688 4.019531 -8.722656 4.019531 -8.613281 L 4.019531 -8.390625 C 4.019531 -8.28125 4.101562 -8.199219 4.210938 -8.199219 L 4.433594 -8.199219 C 4.542969 -8.199219 4.621094 -8.121094 4.621094 -8.011719 L 4.621094 -1.398438 C 4.621094 -1.285156 4.542969 -1.207031 4.433594 -1.207031 L 4.210938 -1.207031 C 4.101562 -1.207031 4.019531 -1.125 4.019531 -1.015625 L 4.019531 -0.792969 C 4.019531 -0.683594 3.941406 -0.601562 3.828125 -0.601562 L 3.609375 -0.601562 C 3.496094 -0.601562 3.417969 -0.683594 3.417969 -0.792969 Z M 3.417969 -8.613281 "/></g></g></g><g fill="#ffffff" fill-opacity="1"><g transform="translate(202.159774, 268.840295)"><g/></g></g><g fill="#ffffff" fill-opacity="1"><g transform="translate(212.713325, 268.840295)"><g><path d="M 0.300781 -0.191406 C 0.300781 -0.0820312 0.382812 0 0.492188 0 L 2.824219 0 C 2.933594 0 3.015625 -0.0820312 3.015625 -0.191406 L 3.015625 -3.609375 C 3.015625 -3.71875 3.09375 -3.800781 3.207031 -3.800781 L 3.425781 -3.800781 C 3.539062 -3.800781 3.617188 -3.878906 3.617188 -3.988281 L 3.617188 -4.210938 C 3.617188 -4.320312 3.699219 -4.402344 3.808594 -4.402344 L 4.03125 -4.402344 C 4.140625 -4.402344 4.222656 -4.320312 4.222656 -4.210938 L 4.222656 -3.988281 C 4.222656 -3.878906 4.300781 -3.800781 4.410156 -3.800781 L 4.632812 -3.800781 C 4.742188 -3.800781 4.824219 -3.71875 4.824219 -3.609375 L 4.824219 -0.191406 C 4.824219 -0.0820312 4.90625 0 5.015625 0 L 7.347656 0 C 7.457031 0 7.539062 -0.0820312 7.539062 -0.191406 L 7.539062 -3.003906 C 7.539062 -3.117188 7.457031 -3.195312 7.347656 -3.195312 L 7.125 -3.195312 C 7.015625 -3.195312 6.933594 -3.277344 6.933594 -3.386719 L 6.933594 -3.609375 C 6.933594 -3.71875 6.855469 -3.800781 6.742188 -3.800781 L 6.523438 -3.800781 C 6.410156 -3.800781 6.332031 -3.878906 6.332031 -3.988281 L 6.332031 -4.210938 C 6.332031 -4.320312 6.25 -4.402344 6.140625 -4.402344 L 5.316406 -4.402344 C 5.207031 -4.402344 5.125 -4.480469 5.125 -4.59375 L 5.125 -4.8125 C 5.125 -4.925781 5.207031 -5.003906 5.316406 -5.003906 L 6.140625 -5.003906 C 6.25 -5.003906 6.332031 -5.085938 6.332031 -5.195312 L 6.332031 -5.417969 C 6.332031 -5.527344 6.410156 -5.609375 6.523438 -5.609375 L 6.742188 -5.609375 C 6.855469 -5.609375 6.933594 -5.6875 6.933594 -5.800781 L 6.933594 -6.019531 C 6.933594 -6.128906 7.015625 -6.210938 7.125 -6.210938 L 7.347656 -6.210938 C 7.457031 -6.210938 7.539062 -6.292969 7.539062 -6.402344 L 7.539062 -9.214844 C 7.539062 -9.328125 7.457031 -9.40625 7.347656 -9.40625 L 5.015625 -9.40625 C 4.90625 -9.40625 4.824219 -9.328125 4.824219 -9.214844 L 4.824219 -5.800781 C 4.824219 -5.6875 4.742188 -5.609375 4.632812 -5.609375 L 4.410156 -5.609375 C 4.300781 -5.609375 4.222656 -5.527344 4.222656 -5.417969 L 4.222656 -5.195312 C 4.222656 -5.085938 4.140625 -5.003906 4.03125 -5.003906 L 3.808594 -5.003906 C 3.699219 -5.003906 3.617188 -5.085938 3.617188 -5.195312 L 3.617188 -5.417969 C 3.617188 -5.527344 3.539062 -5.609375 3.425781 -5.609375 L 3.207031 -5.609375 C 3.09375 -5.609375 3.015625 -5.6875 3.015625 -5.800781 L 3.015625 -9.214844 C 3.015625 -9.328125 2.933594 -9.40625 2.824219 -9.40625 L 0.492188 -9.40625 C 0.382812 -9.40625 0.300781 -9.328125 0.300781 -9.214844 L 0.300781 -6.402344 C 0.300781 -6.292969 0.382812 -6.210938 0.492188 -6.210938 L 0.714844 -6.210938 C 0.824219 -6.210938 0.90625 -6.128906 0.90625 -6.019531 L 0.90625 -5.800781 C 0.90625 -5.6875 0.984375 -5.609375 1.09375 -5.609375 L 1.316406 -5.609375 C 1.425781 -5.609375 1.507812 -5.527344 1.507812 -5.417969 L 1.507812 -5.195312 C 1.507812 -5.085938 1.589844 -5.003906 1.699219 -5.003906 L 2.523438 -5.003906 C 2.632812 -5.003906 2.714844 -4.925781 2.714844 -4.8125 L 2.714844 -4.59375 C 2.714844 -4.480469 2.632812 -4.402344 2.523438 -4.402344 L 1.699219 -4.402344 C 1.589844 -4.402344 1.507812 -4.320312 1.507812 -4.210938 L 1.507812 -3.988281 C 1.507812 -3.878906 1.425781 -3.800781 1.316406 -3.800781 L 1.09375 -3.800781 C 0.984375 -3.800781 0.90625 -3.71875 0.90625 -3.609375 L 0.90625 -3.386719 C 0.90625 -3.277344 0.824219 -3.195312 0.714844 -3.195312 L 0.492188 -3.195312 C 0.382812 -3.195312 0.300781 -3.117188 0.300781 -3.003906 Z M 0.300781 -0.191406 "/></g></g></g><g clip-path="url(#b1254330ec)"><path fill="#ffffff" d="M 173.628906 148.429688 L 188.023438 148.429688 C 191.640625 148.429688 191.640625 142.882812 188.023438 142.882812 L 149.578125 142.882812 C 145.960938 142.882812 145.960938 137.335938 149.578125 137.335938 L 167.335938 137.335938 C 170.949219 137.335938 170.824219 132.101562 167.835938 131.851562 L 157.675781 131.851562 C 154.0625 131.851562 154.0625 126.308594 157.675781 126.308594 L 160.355469 126.308594 C 161.292969 126.183594 162.476562 125 162.476562 123.628906 C 162.476562 122.257812 161.480469 121.132812 160.171875 120.886719 L 150.324219 120.886719 C 146.710938 120.886719 146.710938 115.339844 150.324219 115.339844 L 160.667969 115.339844 C 164.28125 115.339844 164.160156 110.105469 161.167969 109.855469 L 139.480469 109.855469 C 135.867188 109.855469 135.867188 104.308594 139.480469 104.308594 L 170.949219 104.371094 C 172.382812 104.558594 173.566406 105.308594 174.378906 106.554688 L 192.636719 134.78125 C 194.566406 137.773438 198.929688 137.773438 200.921875 134.78125 L 219.367188 106.554688 C 220.304688 105.121094 221.800781 104.308594 223.480469 104.308594 L 239.871094 104.308594 C 243.859375 104.308594 246.164062 108.734375 243.921875 112.035156 L 213.136719 157.027344 C 211.953125 158.710938 211.953125 160.890625 213.136719 162.574219 L 245.601562 210.183594 C 247.847656 213.484375 245.480469 217.910156 241.554688 217.910156 L 224.355469 217.910156 C 222.609375 217.910156 221.175781 217.097656 220.242188 215.664062 L 200.300781 185.257812 C 198.367188 182.265625 194.007812 182.265625 192.074219 185.257812 L 172.011719 215.726562 C 171.074219 217.160156 169.578125 217.972656 167.898438 217.972656 L 144.34375 217.972656 C 143.90625 216.351562 145.089844 214.667969 146.773438 214.542969 L 150.824219 214.542969 C 154.4375 214.542969 154.4375 208.996094 150.824219 208.996094 L 137.863281 208.996094 C 134.246094 208.996094 134.246094 203.453125 137.863281 203.453125 L 156.742188 203.453125 C 160.355469 203.453125 160.355469 197.90625 156.742188 197.90625 C 154.8125 197.90625 151.445312 198.34375 151.445312 195.164062 C 151.445312 193.667969 152.691406 192.421875 154.1875 192.421875 L 170.328125 192.421875 C 173.941406 192.421875 173.941406 186.875 170.328125 186.875 L 159.109375 186.875 C 155.496094 186.875 155.496094 181.332031 159.109375 181.332031 L 177.679688 181.332031 C 181.292969 181.332031 181.292969 175.785156 177.679688 175.785156 L 164.71875 175.785156 C 161.105469 175.785156 161.105469 170.238281 164.71875 170.238281 C 171.886719 170.238281 179.050781 170.238281 186.21875 170.238281 C 189.832031 170.238281 189.832031 164.691406 186.21875 164.691406 L 177.554688 164.691406 C 173.941406 164.691406 173.941406 159.144531 177.554688 159.144531 L 180.609375 159.144531 C 184.035156 158.773438 183.789062 153.664062 180.296875 153.664062 C 176.933594 153.664062 173.566406 153.664062 170.203125 153.664062 C 166.589844 153.664062 166.589844 148.117188 170.203125 148.117188 L 173.628906 148.117188 Z M 162.664062 159.519531 L 170.328125 159.519531 C 173.941406 159.519531 173.941406 165.066406 170.328125 165.066406 L 162.664062 165.066406 C 158.984375 165.003906 158.984375 159.519531 162.664062 159.519531 Z M 136.054688 126.429688 L 148.953125 126.429688 C 152.566406 126.429688 152.566406 131.976562 148.953125 131.976562 L 136.054688 131.976562 C 132.378906 131.914062 132.378906 126.429688 136.054688 126.429688 Z M 130.820312 104.496094 C 132.316406 104.496094 135.367188 104.246094 135.367188 107.238281 C 135.367188 110.230469 132.316406 109.980469 130.820312 109.980469 C 127.144531 110.042969 127.144531 104.496094 130.820312 104.496094 Z M 153.378906 170.550781 C 155.558594 170.550781 159.359375 169.988281 159.359375 173.292969 C 159.359375 176.59375 155.558594 176.035156 153.378906 176.035156 C 149.703125 176.035156 149.703125 170.550781 153.378906 170.550781 Z M 147.085938 148.429688 L 160.667969 148.429688 C 164.28125 148.429688 164.28125 153.972656 160.667969 153.972656 L 147.085938 153.972656 C 143.46875 153.972656 143.46875 148.429688 147.085938 148.429688 Z M 132.253906 181.578125 L 151.445312 181.578125 C 155.058594 181.578125 155.058594 187.125 151.445312 187.125 L 132.253906 187.125 C 128.578125 187.125 128.578125 181.578125 132.253906 181.578125 Z M 141.789062 192.609375 L 146.898438 192.609375 C 150.511719 192.609375 150.511719 198.15625 146.898438 198.15625 L 141.789062 198.15625 C 138.171875 198.15625 138.171875 192.609375 141.789062 192.609375 Z M 141.789062 192.609375 " fill-opacity="1" fill-rule="evenodd"/></g></svg>